<svg viewBox="0 0 108.08 36.85" xmlns="http://www.w3.org/2000/svg"><path d="m44.61 26.88a2 2 0 0 0 .55-.1v1.33a3.25 3.25 0 0 1 -1.18.21 1.67 1.67 0 0 1 -1.67-1 4.84 4.84 0 0 1 -3.14 1.08c-1.51 0-2.91-.83-2.91-2.55 0-2.13 2-2.79 3.71-2.79a11.08 11.08 0 0 1 2.17.25v-.3c0-1-.76-1.77-2.19-1.77a7.42 7.42 0 0 0 -3 .64v-1.7a10.21 10.21 0 0 1 3.19-.55c2.36 0 3.81 1.12 3.81 3.65v3a.54.54 0 0 0 .49.59h.17zm-6.44-1.13a1.35 1.35 0 0 0 1.46 1.25h.11a3.39 3.39 0 0 0 2.41-1v-1.42a9.72 9.72 0 0 0 -1.81-.21c-1 0-2.16.33-2.16 1.38zm12.36-6.11a5 5 0 0 1 2.57.64v1.72a4.08 4.08 0 0 0 -2.3-.7 2.75 2.75 0 1 0 0 5.49 5 5 0 0 0 2.43-.64v1.71a6.27 6.27 0 0 1 -2.76.57 4.21 4.21 0 0 1 -4.47-3.92q0-.21 0-.41a4.32 4.32 0 0 1 4.18-4.46h.38zm12.17 7.24a2 2 0 0 0 .55-.1v1.33a3.25 3.25 0 0 1 -1.18.21 1.67 1.67 0 0 1 -1.67-1 4.84 4.84 0 0 1 -3.14 1.08c-1.51 0-2.91-.83-2.91-2.55 0-2.13 2-2.79 3.71-2.79a11.08 11.08 0 0 1 2.17.25v-.3c0-1-.76-1.77-2.19-1.77a7.42 7.42 0 0 0 -3 .64v-1.7a10.21 10.21 0 0 1 3.19-.55c2.36 0 3.81 1.12 3.81 3.65v3a.54.54 0 0 0 .49.59h.17zm-6.44-1.13a1.35 1.35 0 0 0 1.47 1.25h.11a3.39 3.39 0 0 0 2.41-1v-1.42a9.72 9.72 0 0 0 -1.81-.21c-1.06 0-2.16.33-2.16 1.38zm16.74-9.75v12.2h-1.65v-1.32a3.88 3.88 0 0 1 -3.19 1.54 4.4 4.4 0 0 1 0-8.78 3.81 3.81 0 0 1 3 1.3v-4.94zm-4.53 5.22a2.76 2.76 0 1 0 0 5.52 2.86 2.86 0 0 0 2.68-1.74v-2a2.91 2.91 0 0 0 -2.66-1.73zm10.53-1.58c3.31 0 4.46 2.68 3.92 5.09h-6.22c.21 1.5 1.67 2.11 3.19 2.11a6.11 6.11 0 0 0 2.64-.59v1.6a7.14 7.14 0 0 1 -3 .57c-2.53 0-4.75-1.42-4.75-4.42a4.18 4.18 0 0 1 4-4.39h.22zm.09 1.54a2.28 2.28 0 0 0 -2.44 2.1v.06h4.65a2 2 0 0 0 -2.17-2.16zm5.73 7v-8.31h1.65v1a3.81 3.81 0 0 1 2.78-1.27 2.86 2.86 0 0 1 2.64 1.4 4.12 4.12 0 0 1 2.91-1.33 3.06 3.06 0 0 1 3.2 3.33v5.2h-1.9v-5.15a1.59 1.59 0 0 0 -1.42-1.75h-.26a2.8 2.8 0 0 0 -2.07 1.12v5.78h-1.9v-5.15a1.59 1.59 0 0 0 -1.45-1.74h-.2a3 3 0 0 0 -2.21 1.29v5.63h-1.73zm21.31-8.33h1.9l-3.91 9.46c-.9 2.17-2.09 2.86-3.35 2.86a4.76 4.76 0 0 1 -1.1-.14v-1.57a2.86 2.86 0 0 0 .85.12c.9 0 1.58-.64 2.07-1.9l.17-.42-4-8.4h2l2.86 6.29zm-67.4-18.39v4.76a3.81 3.81 0 0 1 2.7-1.14 3.25 3.25 0 0 1 3.44 3.4v5.15h-1.87v-4.91a1.81 1.81 0 0 0 -1.61-2h-.3a2.93 2.93 0 0 0 -2.32 1.39v5.52h-1.9v-12.17h1.9zm11.21.85v3h3v1.6h-3v3.81c0 1.1.5 1.46 1.58 1.46a4.49 4.49 0 0 0 1.69-.33v1.6a6.8 6.8 0 0 1 -2.21.35 2.55 2.55 0 0 1 -2.86-2.74v-4.17h-1.56v-1.63h1.5v-2.52zm5.4 11.31v-8.34h1.66v1a3.81 3.81 0 0 1 2.77-1.28 2.86 2.86 0 0 1 2.6 1.33 4.12 4.12 0 0 1 2.91-1.33 3.06 3.06 0 0 1 3.16 3.4v5.21h-1.9v-5.15a1.59 1.59 0 0 0 -1.42-1.75h-.23a2.8 2.8 0 0 0 -2.07 1.12v5.78h-1.9v-5.15a1.59 1.59 0 0 0 -1.42-1.75h-.23a3 3 0 0 0 -2.21 1.29v5.63h-1.72zm15.83-12.17h1.83v12.15h-1.83zm-56.46-1.45h-.16l-14.55 1.54v26.67l14.55 8.66 14.55-8.66v-26.67zm12.5 27.1-12.66 7.54-12.65-7.52v-10.94l12.59 7.5v1.32l-8.63-5.1v1.31l8.68 5.21v1.39l-8.67-5.16v1.35l8.68 5.21 8.75-5.24v-5.66l3.9-2.31v11.12zm0-12.53-3.48 2-1.6 1-7.62-4.57v1.31l6.49 3.92-.14.09-1 .54-5.37-3.2v1.34l4.24 2.52-1 .67-3.2-1.9v1.31l2.1 1.24-2.13 1.26-12.5-7.45 12.51-7.54zm0-1.32-12.72-7.49-12.58 7.49v-10l12.65-1.33 12.65 1.33z" fill="#fff" transform="translate(0 -.02)"/></svg>